<svg width="30" height="31" viewBox="0 0 30 31" fill="none" xmlns="http://www.w3.org/2000/svg">
<path d="M28.125 1.87826C28.125 1.1224 27.668 0.436856 26.9648 0.143887C26.2617 -0.149082 25.459 0.0149806 24.9199 0.548184L22.3652 3.10873C19.5527 5.92123 15.7383 7.50326 11.7598 7.50326H11.25H9.375H3.75C1.68164 7.50326 0 9.1849 0 11.2533V16.8783C0 18.9466 1.68164 20.6283 3.75 20.6283V28.1283C3.75 29.1654 4.58789 30.0033 5.625 30.0033H9.375C10.4121 30.0033 11.25 29.1654 11.25 28.1283V20.6283H11.7598C15.7383 20.6283 19.5527 22.2103 22.3652 25.0228L24.9199 27.5775C25.459 28.1165 26.2617 28.2747 26.9648 27.9818C27.668 27.6888 28.125 27.0091 28.125 26.2474V17.6048C29.2148 17.0892 30 15.7005 30 14.0658C30 12.431 29.2148 11.0423 28.125 10.5267V1.87826ZM24.375 6.3724V14.0658V21.7591C20.9297 18.6244 16.4355 16.8783 11.7598 16.8783H11.25V11.2533H11.7598C16.4355 11.2533 20.9297 9.50717 24.375 6.3724Z" fill="#FF1670"/>
</svg>
