<svg width="15" height="15" viewBox="0 0 15 15" fill="none" xmlns="http://www.w3.org/2000/svg">
<path d="M6.79688 3.51562C6.79688 3.12598 7.11035 2.8125 7.5 2.8125C7.88965 2.8125 8.20312 3.12598 8.20312 3.51562V7.125L10.7021 8.78906C11.0244 9.00586 11.1123 9.44238 10.8721 9.76465C10.6816 10.0869 10.2451 10.1748 9.92285 9.93457L7.11035 8.05957C6.91406 7.9541 6.79688 7.73438 6.79688 7.47363V3.51562ZM7.5 0C11.6426 0 15 3.35742 15 7.5C15 11.6426 11.6426 15 7.5 15C3.35742 15 0 11.6426 0 7.5C0 3.35742 3.35742 0 7.5 0ZM1.40625 7.5C1.40625 10.8662 4.13379 13.5938 7.5 13.5938C10.8662 13.5938 13.5938 10.8662 13.5938 7.5C13.5938 4.13379 10.8662 1.40625 7.5 1.40625C4.13379 1.40625 1.40625 4.13379 1.40625 7.5Z" fill="#FF1670"/>
</svg>
