<svg width="30" height="35" viewBox="0 0 30 35" fill="none" xmlns="http://www.w3.org/2000/svg">
<path d="M9.17857 4.28571V5.28571H10.1786H19.8214H20.8214V4.28571V1.60714C20.8214 1.27079 21.0916 1 21.4286 1C21.7656 1 22.0357 1.27079 22.0357 1.60714V4.28571V5.28571H23.0357H25.7143C27.5263 5.28571 29 6.75703 29 8.57143V30C29 31.8116 27.5258 33.2857 25.7143 33.2857H4.28571C2.47132 33.2857 1 31.8121 1 30V8.57143C1 6.75653 2.47081 5.28571 4.28571 5.28571H6.96429H7.96429V4.28571V1.60714C7.96429 1.27079 8.23445 1 8.57143 1C8.90841 1 9.17857 1.27079 9.17857 1.60714V4.28571ZM2.21429 16.6071V17.6071H3.21429H8.57143H9.57143V16.6071V12.8571V11.8571H8.57143H3.21429H2.21429V12.8571V16.6071ZM3.21429 18.8214H2.21429V19.8214V24.1071V25.1071H3.21429H8.57143H9.57143V24.1071V19.8214V18.8214H8.57143H3.21429ZM11.7857 18.8214H10.7857V19.8214V24.1071V25.1071H11.7857H18.2143H19.2143V24.1071V19.8214V18.8214H18.2143H11.7857ZM21.4286 18.8214H20.4286V19.8214V24.1071V25.1071H21.4286H26.7857H27.7857V24.1071V19.8214V18.8214H26.7857H21.4286ZM27.7857 12.8571V11.8571H26.7857H21.4286H20.4286V12.8571V16.6071V17.6071H21.4286H26.7857H27.7857V16.6071V12.8571ZM27.7857 27.3214V26.3214H26.7857H21.4286H20.4286V27.3214V31.0714V32.0714H21.4286H25.7143C26.8559 32.0714 27.7857 31.1416 27.7857 30V27.3214ZM19.2143 27.3214V26.3214H18.2143H11.7857H10.7857V27.3214V31.0714V32.0714H11.7857H18.2143H19.2143V31.0714V27.3214ZM9.57143 27.3214V26.3214H8.57143H3.21429H2.21429V27.3214V30C2.21429 31.1399 3.13984 32.0714 4.28571 32.0714H8.57143H9.57143V31.0714V27.3214ZM19.2143 12.8571V11.8571H18.2143H11.7857H10.7857V12.8571V16.6071V17.6071H11.7857H18.2143H19.2143V16.6071V12.8571Z" stroke="#FF1670" stroke-width="2"/>
</svg>
