<svg width="12" height="15" viewBox="0 0 12 15" fill="none" xmlns="http://www.w3.org/2000/svg">
<g clip-path="url(#clip0_1_3)">
<path d="M10.875 5.625C10.875 6.19133 10.6828 6.90195 10.3454 7.70115C10.0107 8.49412 9.5457 9.345 9.02903 10.1831C7.99605 11.8588 6.77435 13.4548 6.02674 14.3905C5.81653 14.6515 5.4334 14.6514 5.2232 14.3904C4.4756 13.4548 3.25394 11.8588 2.22095 10.1831C1.70429 9.345 1.23932 8.49412 0.904545 7.70115C0.567158 6.90195 0.375 6.19133 0.375 5.625C0.375 2.72664 2.72664 0.375 5.625 0.375C8.52338 0.375 10.875 2.72664 10.875 5.625ZM3.375 5.625C3.375 6.86629 4.38371 7.875 5.625 7.875C6.86629 7.875 7.875 6.86629 7.875 5.625C7.875 4.38371 6.86629 3.375 5.625 3.375C4.38371 3.375 3.375 4.38371 3.375 5.625Z" stroke="#FF1670"/>
</g>
<defs>
<clipPath id="clip0_1_3">
<rect width="11.25" height="15" fill="white"/>
</clipPath>
</defs>
</svg>
