<svg width="15" height="20" viewBox="0 0 15 20" fill="none" xmlns="http://www.w3.org/2000/svg">
<path d="M14.5 7.5C14.5 8.2551 14.2438 9.2026 13.7939 10.2682C13.3476 11.3255 12.7276 12.46 12.0387 13.5775C10.6614 15.8117 9.03247 17.9398 8.03566 19.1873C7.75537 19.5353 7.24453 19.5352 6.96427 19.1872C5.96746 17.9397 4.33859 15.8117 2.96127 13.5775C2.27238 12.46 1.65242 11.3255 1.20606 10.2682C0.756211 9.2026 0.5 8.2551 0.5 7.5C0.5 3.63552 3.63552 0.5 7.5 0.5C11.3645 0.5 14.5 3.63552 14.5 7.5ZM4.5 7.5C4.5 9.15505 5.84495 10.5 7.5 10.5C9.15505 10.5 10.5 9.15505 10.5 7.5C10.5 5.84495 9.15505 4.5 7.5 4.5C5.84495 4.5 4.5 5.84495 4.5 7.5Z" stroke="#FF1670"/>
</svg>
