<svg width="20" height="15" viewBox="0 0 20 15" fill="none" xmlns="http://www.w3.org/2000/svg">
<path d="M0 2.5C0 1.11914 1.11914 0 2.5 0H17.5C18.8789 0 20 1.11914 20 2.5V12.5C20 13.8789 18.8789 15 17.5 15H2.5C1.11914 15 0 13.8789 0 12.5V2.5ZM1.875 2.5V3.36328L8.61328 8.89453C9.41797 9.55859 10.582 9.55859 11.3867 8.89453L18.125 3.36328V2.46484C18.125 2.15625 17.8438 1.83984 17.5 1.83984H2.5C2.15469 1.83984 1.875 2.15625 1.875 2.46484V2.5ZM1.875 5.78906V12.5C1.875 12.8438 2.15469 13.125 2.5 13.125H17.5C17.8438 13.125 18.125 12.8438 18.125 12.5V5.78906L12.5781 10.3437C11.0781 11.5742 8.92188 11.5742 7.38672 10.3437L1.875 5.78906Z" fill="#FF1670"/>
</svg>
