<svg width="100" height="100" viewBox="0 0 100 100" fill="none" xmlns="http://www.w3.org/2000/svg">
<circle cx="50" cy="50" r="48.5" stroke="#FF1670" stroke-width="3"/>
<path d="M38.7195 23.1968L38.723 23.1989L76.2191 46.1131C76.2197 46.1135 76.2204 46.1139 76.221 46.1143C77.6431 46.9903 78.5 48.514 78.5 50.1742C78.5 51.8399 77.6386 53.3716 76.2256 54.2312L76.223 54.2328L38.7258 77.1478C38.7254 77.148 38.7249 77.1483 38.7245 77.1486C37.2559 78.041 35.4139 78.0771 33.9259 77.2394C32.4306 76.3977 31.5 74.8132 31.5 73.0908V27.2575C31.5 25.5351 32.4306 23.9507 33.9259 23.1089C35.4201 22.2678 37.2594 22.299 38.7195 23.1968Z" stroke="#FF1670" stroke-width="3"/>
<line x1="54.3024" y1="17.6128" x2="72.9595" y2="29.271" stroke="#FF1670" stroke-width="3" stroke-linecap="round"/>
</svg>
