<svg width="40" height="26" viewBox="0 0 40 26" fill="none" xmlns="http://www.w3.org/2000/svg">
<path d="M31.5658 4.65648C30.445 3.39846 27.7325 0.811328 23.9129 0.221925C22.5096 0.0127344 21.0819 0.446834 19.958 1.35769C18.8359 0.500722 17.4076 0.0610093 15.9981 0.275564C11.0271 1.04335 7.90236 5.22405 7.77138 5.40492C7.28214 6.07166 7.42641 7.00909 8.09103 7.4987C8.35804 7.69561 8.66989 7.78916 8.97607 7.78916C9.43798 7.78916 9.89229 7.57866 10.1848 7.17905C10.2101 7.14396 12.6915 3.81666 16.4531 3.23536C16.9182 3.17542 17.3874 3.27715 17.7978 3.51497L14.1706 7.21991C13.3972 7.98707 12.917 8.96005 12.917 10.1077C12.917 11.1992 13.3418 12.2245 14.112 12.9948C14.9378 13.7688 15.9606 14.1368 17.0521 14.1368C18.1436 14.1368 19.169 13.7119 19.9405 12.9399L20.6484 12.232L28.3948 18.5252C28.539 18.6421 28.5605 18.8527 28.426 19.0223L26.699 21.252C26.584 21.3924 26.3715 21.4138 26.2527 21.3183L24.8668 20.1526L23.2333 21.8834C23.0871 22.0627 22.9 22.1056 22.8026 22.1154C22.6993 22.1251 22.518 22.1232 22.3777 22.0082L20.3563 20.283L19.3785 21.1972L19.2032 21.3804C18.8387 21.8268 18.3244 22.1076 17.7512 22.1663C17.1606 22.217 16.6129 22.0571 16.2231 21.7433L10.6217 16.6753H5.98758V4.73132H0V20.6732L3.99172 20.6758C4.72395 20.6758 5.33705 20.2575 5.68446 19.6691H9.46661L14.2729 24.0138C15.1997 24.771 16.3349 25.1702 17.5137 25.1702C17.693 25.1702 17.8742 25.1624 18.0535 25.1429C18.903 25.0552 19.7008 24.7647 20.3906 24.3009L20.4471 24.3516C21.1974 24.9675 22.1486 25.2503 23.1097 25.1486C23.9324 25.0629 24.6864 24.7101 25.2247 24.1913C26.5401 24.7019 28.0993 24.3375 29.0449 23.164L30.7719 20.9343C31.9239 19.511 31.7056 17.4116 30.2827 16.2558L22.7795 10.1585L23.3022 9.63571C23.887 9.05092 23.887 8.10326 23.3022 7.51885C22.7175 6.93406 21.7704 6.93406 21.1854 7.51885L17.8255 10.8748C17.4139 11.2927 16.6966 11.2927 16.285 10.8748C16.0784 10.6701 15.9653 10.3973 15.9653 10.107C15.9653 9.81465 16.0783 9.54172 16.2947 9.32554L21.653 3.85938C22.1402 3.37008 22.8087 3.12652 23.458 3.2338C27.1846 3.80886 29.7075 7.14631 29.7324 7.18124C29.925 7.44039 30.1855 7.61446 30.4709 7.70365H33.9296V18.6247C33.9296 19.7268 34.8234 20.6237 35.8693 20.6237L39.9172 20.6795V4.71885L31.5658 4.65648ZM2.99379 18.6836C2.44805 18.6836 1.99586 18.2317 1.99586 17.6863C1.99586 17.1327 2.44805 16.689 2.99379 16.689C3.53953 16.689 3.99172 17.1368 3.99172 17.6919C3.99172 18.2346 3.53953 18.6836 2.99379 18.6836ZM36.9234 18.6836C36.3777 18.6836 35.9255 18.2317 35.9255 17.6863C35.9255 17.1327 36.3777 16.689 36.9234 16.689C37.4691 16.689 37.9213 17.1329 37.9213 17.6863C37.9213 18.2346 37.4723 18.6836 36.9234 18.6836Z" fill="#FF1670"/>
</svg>
