<svg width="30" height="30" viewBox="0 0 30 30" fill="none" xmlns="http://www.w3.org/2000/svg">
<path d="M17.9707 19.0488L9.51562 22.3008C8.32617 22.7402 7.25977 21.6211 7.69922 20.4844L10.9512 12.0293C11.1387 11.5313 11.5313 11.1387 12.0293 10.9512L20.4844 7.69922C21.6211 7.25977 22.7402 8.32617 22.3008 9.51562L19.0488 17.9707C18.8613 18.4688 18.4688 18.8613 17.9707 19.0488ZM14.9473 13.125C13.9629 13.125 13.0723 13.9629 13.0723 15C13.0723 16.0371 13.9629 16.875 14.9473 16.875C16.0371 16.875 16.875 16.0371 16.875 15C16.875 13.9629 16.0371 13.125 14.9473 13.125ZM30 15C30 23.2852 23.2852 30 15 30C6.71484 30 0 23.2852 0 15C0 6.71484 6.71484 0 15 0C23.2852 0 30 6.71484 30 15ZM15 2.8125C8.26758 2.8125 2.8125 8.26758 2.8125 15C2.8125 21.7324 8.26758 27.1875 15 27.1875C21.7324 27.1875 27.1875 21.7324 27.1875 15C27.1875 8.26758 21.7324 2.8125 15 2.8125Z" fill="white"/>
</svg>
