<svg width="38" height="30" viewBox="0 0 38 30" fill="none" xmlns="http://www.w3.org/2000/svg">
<path d="M23.0093 0.0734684C22.0134 -0.21358 20.9765 0.366375 20.6895 1.36226L13.1911 27.6067C12.904 28.6026 13.484 29.6395 14.4798 29.9265C15.4757 30.2136 16.5126 29.6336 16.7997 28.6377L24.2981 2.39329C24.5851 1.39741 24.0052 0.360517 23.0093 0.0734684V0.0734684ZM27.731 7.10909C26.9987 7.84136 26.9987 9.03056 27.731 9.76283L32.9623 15L27.7251 20.2372C26.9928 20.9694 26.9928 22.1586 27.7251 22.8909C28.4574 23.6232 29.6466 23.6232 30.3788 22.8909L36.9399 16.3298C37.6722 15.5975 37.6722 14.4083 36.9399 13.6761L30.3788 7.11495C29.6466 6.38268 28.4574 6.38268 27.7251 7.11495L27.731 7.10909ZM9.76405 7.10909C9.03178 6.37682 7.84258 6.37682 7.11031 7.10909L0.5492 13.6702C-0.183067 14.4025 -0.183067 15.5917 0.5492 16.3239L7.11031 22.8851C7.84258 23.6173 9.03178 23.6173 9.76405 22.8851C10.4963 22.1528 10.4963 20.9636 9.76405 20.2313L4.52688 15L9.76405 9.76283C10.4963 9.03056 10.4963 7.84136 9.76405 7.10909Z" fill="white"/>
</svg>
