<svg width="30" height="30" viewBox="0 0 30 30" fill="none" xmlns="http://www.w3.org/2000/svg">
<path d="M29.4307 9.35759L15.7198 0.216981C15.2518 -0.071007 14.7524 -0.0736437 14.2801 0.216981L0.569179 9.35759C0.217617 9.5919 0 10.0105 0 10.429V19.5695C0 19.9881 0.217617 20.4066 0.569237 20.641L14.2801 29.7829C14.7481 30.0708 15.2476 30.0735 15.7199 29.7829L29.4308 20.641C29.7823 20.4066 30 19.9881 30 19.5695V10.429C29.9999 10.0105 29.7823 9.5919 29.4307 9.35759V9.35759ZM16.289 3.69902L26.3839 10.429L21.8806 13.4424L16.289 9.70909V3.69902ZM13.7109 3.69902V9.70909L8.11938 13.4424L3.61605 10.429L13.7109 3.69902ZM2.57812 12.8397L5.80915 14.9993L2.57812 17.1589V12.8397ZM13.7109 26.2995L3.61605 19.5696L8.11938 16.5562L13.7109 20.2895V26.2995ZM15 18.0461L10.4464 14.9993L15 11.9524L19.5536 14.9993L15 18.0461ZM16.289 26.2995V20.2895L21.8806 16.5562L26.3839 19.5696L16.289 26.2995ZM27.4218 17.1589L24.1908 14.9993L27.4218 12.8397V17.1589Z" fill="white"/>
</svg>
