<svg width="34" height="30" viewBox="0 0 34 30" fill="none" xmlns="http://www.w3.org/2000/svg">
<path d="M3.75 0C1.68164 0 0 1.68164 0 3.75V20.625C0 22.6934 1.68164 24.375 3.75 24.375H14.0625L13.4355 26.25H9.375C8.33789 26.25 7.5 27.0879 7.5 28.125C7.5 29.1621 8.33789 30 9.375 30H24.375C25.4121 30 26.25 29.1621 26.25 28.125C26.25 27.0879 25.4121 26.25 24.375 26.25H20.3145L19.6875 24.375H30C32.0684 24.375 33.75 22.6934 33.75 20.625V3.75C33.75 1.68164 32.0684 0 30 0H3.75ZM30 3.75V16.875H3.75V3.75H30Z" fill="white"/>
</svg>
