<svg width="30" height="32" viewBox="0 0 30 32" fill="none" xmlns="http://www.w3.org/2000/svg">
<path d="M15.2192 1.54791L15.2353 1.55519L15.2516 1.56208L27.0203 6.55582L27.0222 6.55661C27.8908 6.92381 28.5033 7.76451 28.5 8.74314C28.4698 14.6996 26.0089 25.3054 15.9963 30.0969L15.9957 30.0972C15.3617 30.4009 14.6258 30.4009 13.9918 30.0972C3.9915 25.306 1.53031 14.7004 1.50001 8.74342C1.49663 7.76467 2.10911 6.92384 2.97782 6.55662L2.97943 6.55593L14.7544 1.56219L14.7771 1.55257L14.7994 1.54222C14.8535 1.51716 14.9253 1.5 15 1.5C15.0723 1.5 15.1492 1.51624 15.2192 1.54791Z" stroke="white" stroke-width="3"/>
</svg>
