<svg width="30" height="30" viewBox="0 0 30 30" fill="none" xmlns="http://www.w3.org/2000/svg">
<path d="M15.2808 1.67371L15.2808 1.67371L15.283 1.6783L18.936 9.19454L19.2824 9.90716L20.0662 10.0228L28.2265 11.2267C28.2269 11.2267 28.2272 11.2268 28.2275 11.2268C28.3456 11.2449 28.4454 11.3274 28.4848 11.4467C28.5207 11.5552 28.4919 11.682 28.4058 11.767L28.4053 11.7676L22.4854 17.6249L21.9313 18.1732L22.0616 18.9419L23.4641 27.2153C23.4642 27.2157 23.4642 27.216 23.4643 27.2164C23.483 27.331 23.4365 27.4554 23.3286 27.5338C23.2399 27.5983 23.1114 27.6138 22.9926 27.552C22.992 27.5517 22.9914 27.5513 22.9907 27.551L15.7081 23.6627L15.0016 23.2856L14.2951 23.6627L7.01247 27.551C7.01186 27.5513 7.01124 27.5517 7.01062 27.552C6.89988 27.6095 6.76618 27.5994 6.66654 27.528C6.57157 27.4599 6.51917 27.3369 6.53893 27.2162C6.53898 27.2159 6.53902 27.2156 6.53907 27.2153L7.93613 18.9409L8.06581 18.1728L7.51208 17.6249L1.59226 11.7676L1.59168 11.767C1.51266 11.6889 1.47624 11.5601 1.51634 11.4355C1.5492 11.3334 1.64385 11.2461 1.77003 11.2268C1.77035 11.2268 1.77068 11.2267 1.77101 11.2267L9.92579 10.0228L10.7095 9.90707L11.0558 9.19454L14.7062 1.68363C14.7065 1.68308 14.7068 1.68254 14.707 1.682C14.7646 1.56633 14.8757 1.5 14.9959 1.5C15.1241 1.5 15.2321 1.57265 15.2808 1.67371Z" stroke="white" stroke-width="3"/>
</svg>
