<svg width="35" height="34" viewBox="0 0 35 34" fill="none" xmlns="http://www.w3.org/2000/svg">
<path d="M17.8455 2.19973L17.848 2.20501L22.0483 10.8473L22.4466 11.6667L23.3478 11.7997L32.7307 13.1839L32.7319 13.184C32.8676 13.2049 32.9824 13.2997 33.0277 13.4369C33.069 13.5616 33.0359 13.7074 32.9369 13.8052L26.1295 20.5407L25.4924 21.1711L25.6422 22.055L27.2548 31.5679L27.255 31.5692C27.2765 31.7009 27.2231 31.844 27.099 31.9341C26.997 32.0083 26.8493 32.0261 26.7127 31.955L26.7105 31.9539L18.3368 27.4831L17.5245 27.0495L16.7121 27.4831L8.33844 31.9539L8.33631 31.955C8.20898 32.0212 8.05525 32.0095 7.94068 31.9274C7.83148 31.8491 7.77123 31.7077 7.79395 31.5689L9.40048 22.0539L9.54959 21.1707L8.9129 20.5407L2.10619 13.8059C2.01533 13.7161 1.97279 13.5673 2.01889 13.424C2.05668 13.3066 2.16551 13.2062 2.31059 13.184L11.6882 11.7997L12.5893 11.6666L12.9875 10.8473L17.1848 2.21114L17.1857 2.20927C17.252 2.07627 17.3797 2 17.5179 2C17.6653 2 17.7895 2.08353 17.8455 2.19973Z" stroke="#FF1670" stroke-width="3"/>
</svg>
