<svg width="31" height="30" viewBox="0 0 31 30" fill="none" xmlns="http://www.w3.org/2000/svg">
<path d="M29.4504 3.28803H29.4504V3.2918L29.4504 13.5375C29.4504 14.4405 29.0946 15.3033 28.4608 15.9371L16.3909 28.007C15.0669 29.331 12.9226 29.331 11.5987 28.007L2.44332 18.8517C1.11937 17.5277 1.11937 15.3834 2.44332 14.0595L14.5133 1.98954C15.1471 1.35576 16.0099 1 16.9128 1L27.1654 1C28.4312 1 29.4551 2.02664 29.4504 3.28803ZM22.7763 4.48634C21.0102 4.48634 19.5818 5.91474 19.5818 7.68088C19.5818 9.44701 21.0102 10.8754 22.7763 10.8754C24.5425 10.8754 25.9709 9.44702 25.9709 7.68088C25.9709 5.91474 24.5425 4.48634 22.7763 4.48634Z" stroke="#FF1670" stroke-width="2"/>
</svg>
