<svg width="37" height="30" viewBox="0 0 37 30" fill="none" xmlns="http://www.w3.org/2000/svg">
<path d="M33.6203 0H3.63594C1.79219 0 0.300003 1.49219 0.300003 3.33594V8.32813H3.63594V3.33594H33.6203V26.6641H21.9641V30H33.6359C35.4797 30 36.9719 28.5078 36.9719 26.6641V3.33594C36.9719 1.49219 35.4641 0 33.6203 0ZM0.300003 24.9688V29.9609H5.29219C5.29219 27.2031 3.05782 24.9688 0.300003 24.9688ZM0.300003 18.3281V21.6406C4.90157 21.6406 8.62813 25.3984 8.62813 30H11.9641C11.9719 23.5625 6.7375 18.3359 0.300003 18.3281ZM15.3078 30H18.6438C18.6047 19.8828 10.4172 11.6953 0.300003 11.6719V14.9844C8.58125 14.9688 15.3 21.7188 15.3078 30Z" fill="white"/>
</svg>
