<svg width="30" height="30" viewBox="0 0 30 30" fill="none" xmlns="http://www.w3.org/2000/svg">
<path d="M13.623 0.303223C14.4961 -0.101074 15.5039 -0.101074 16.377 0.303223L29.1855 6.22119C29.6836 6.44971 30 6.94775 30 7.49854C30 8.04932 29.6836 8.54736 29.1855 8.77588L16.377 14.6938C15.5039 15.0981 14.4961 15.0981 13.623 14.6938L0.814453 8.77588C0.316406 8.5415 0 8.04346 0 7.49854C0 6.95361 0.316406 6.44971 0.814453 6.22119L13.623 0.303223ZM26.0684 12.2798L29.1855 13.7212C29.6836 13.9497 30 14.4478 30 14.9985C30 15.5493 29.6836 16.0474 29.1855 16.2759L16.377 22.1938C15.5039 22.5981 14.4961 22.5981 13.623 22.1938L0.814453 16.2759C0.316406 16.0415 0 15.5435 0 14.9985C0 14.4536 0.316406 13.9497 0.814453 13.7212L3.93164 12.2798L12.8379 16.3931C14.209 17.0259 15.791 17.0259 17.1621 16.3931L26.0684 12.2798V12.2798ZM17.1621 23.8931L26.0684 19.7798L29.1855 21.2212C29.6836 21.4497 30 21.9478 30 22.4985C30 23.0493 29.6836 23.5474 29.1855 23.7759L16.377 29.6938C15.5039 30.0981 14.4961 30.0981 13.623 29.6938L0.814453 23.7759C0.316406 23.5415 0 23.0435 0 22.4985C0 21.9536 0.316406 21.4497 0.814453 21.2212L3.93164 19.7798L12.8379 23.8931C14.209 24.5259 15.791 24.5259 17.1621 23.8931Z" fill="white"/>
</svg>
